# xmcd
#
# Track frame offsets:
#	150
#	10732
#	25197
#	39782
#	49617
#	62077
#	77347
#	91360
#	118775
#	131325
#	143055
#	156940
#
# Disc length: 2313 seconds
#
# Revision: 2
# Processed by: cddbd v1.4PL0 Copyright (c) Steve Scherf et al.
# Submitted via: dBpowerAMP V4.0
#
DISCID=8909070c
DTITLE=Stomping Tom Connors - "Live" At The Horseshoe
DYEAR=1900
DGENRE=country
TTITLE0=Happy Rovin' Cowboy
TTITLE1=Big Joe Mufferaw
TTITLE2=Come Where We're At
TTITLE3=The Green, Green Grass Of Home No.2
TTITLE4=Spin, Spin
TTITLE5=Muleskinner Blues
TTITLE6=Horseshoe Hotel Song
TTITLE7=I've Been Everywhere
TTITLE8=Sudbury Saturday Night
TTITLE9=Bus Tour To Nashville
TTITLE10=Luke's Guitar
TTITLE11=Bud The Spud
EXTD=
EXTT0=
EXTT1=
EXTT2=
EXTT3=
EXTT4=
EXTT5=
EXTT6=
EXTT7=
EXTT8=
EXTT9=
EXTT10=
EXTT11=
PLAYORDER=
